<?xml version="1.0" encoding="utf-8"?>
<!-- Generator: Adobe Illustrator 16.0.0, SVG Export Plug-In . SVG Version: 6.00 Build 0)  -->
<!DOCTYPE svg PUBLIC "-//W3C//DTD SVG 1.1//EN" "http://www.w3.org/Graphics/SVG/1.1/DTD/svg11.dtd">
<svg version="1.1"
	 id="svg8" xmlns:dc="http://purl.org/dc/elements/1.1/" xmlns:cc="http://creativecommons.org/ns#" xmlns:rdf="http://www.w3.org/1999/02/22-rdf-syntax-ns#" xmlns:svg="http://www.w3.org/2000/svg" xmlns:sodipodi="http://sodipodi.sourceforge.net/DTD/sodipodi-0.dtd" xmlns:inkscape="http://www.inkscape.org/namespaces/inkscape" sodipodi:docname="formas.svg" inkscape:version="0.92.2 (5c3e80d, 2017-08-06)"
	 xmlns="http://www.w3.org/2000/svg" xmlns:xlink="http://www.w3.org/1999/xlink" x="0px" y="0px" width="595.275px"
	 height="841.89px" viewBox="0 0 595.275 841.89" enable-background="new 0 0 595.275 841.89" xml:space="preserve">
<sodipodi:namedview  showgrid="false" inkscape:cy="1217.2266" inkscape:cx="-167.29328" inkscape:zoom="1" borderopacity="1.0" bordercolor="#666666" pagecolor="#26292d" id="base" inkscape:window-maximized="1" inkscape:window-y="0" inkscape:window-x="1366" inkscape:window-height="1043" inkscape:window-width="1920" inkscape:current-layer="layer1" inkscape:document-units="mm" inkscape:pageshadow="2" inkscape:pageopacity="0">
	</sodipodi:namedview>
<g id="layer1" inkscape:label="Capa 1" inkscape:groupmode="layer">
	
		<path id="rect5977" sodipodi:nodetypes="ccccccccssssccscscccccscscscssscc" inkscape:connector-curvature="0" fill="#26292D" stroke="#003D65" stroke-width="0.2646" d="
		M55.679,104.904v279h456.25v-279H55.679z M175.776,203.366h0.377h58.654h74.073c5.414,0,9.776,4.359,9.776,9.775v74.447
		c0,5.416-4.362,9.777-9.776,9.777h-74.073h-58.654h-0.377c-0.136,0-0.266-0.016-0.401-0.021
		c-25.676-0.414-46.223-21.203-46.223-46.979c0-25.787,20.563-46.581,46.25-46.98C175.527,203.381,175.648,203.367,175.776,203.366
		L175.776,203.366z M338.959,203.366h41.738h0.374c0.128,0,0.249,0.014,0.374,0.019c25.689,0.4,46.25,21.194,46.25,46.98
		c0,25.778-20.547,46.566-46.223,46.98c-0.133,0.004-0.266,0.02-0.401,0.02h-0.374h-41.738c-5.414,0-9.776-4.361-9.776-9.777
		v-74.447C329.183,207.726,333.545,203.366,338.959,203.366L338.959,203.366z"/>
</g>
</svg>
